<svg enable-background="new 0 0 500 500" viewBox="0 0 500 500" xmlns="http://www.w3.org/2000/svg"><g fill="#fff" opacity=".25"><path d="m1.64 41.94 6.65-12.47-6.65-12.47 20.51 12.47z"/><path d="m44.93 41.94 6.66-12.47-6.66-12.47 20.51 12.47z"/><path d="m88.23 41.94 6.65-12.47-6.65-12.47 20.51 12.47z"/><path d="m131.52 41.94 6.65-12.47-6.65-12.47 20.51 12.47z"/><path d="m174.81 41.94 6.65-12.47-6.65-12.47 20.51 12.47z"/><path d="m218.1 41.94 6.65-12.47-6.65-12.47 20.51 12.47z"/><path d="m261.39 41.94 6.65-12.47-6.65-12.47 20.51 12.47z"/><path d="m304.68 41.94 6.65-12.47-6.65-12.47 20.51 12.47z"/><path d="m347.97 41.94 6.66-12.47-6.66-12.47 20.51 12.47z"/><path d="m391.26 41.94 6.66-12.47-6.66-12.47 20.51 12.47z"/><path d="m434.56 41.94 6.65-12.47-6.65-12.47 20.51 12.47z"/><path d="m477.85 41.94 6.65-12.47-6.65-12.47 20.51 12.47z"/><path d="m1.64 82.04 6.65-12.47-6.65-12.47 20.51 12.47z"/><path d="m44.93 82.04 6.66-12.47-6.66-12.47 20.51 12.47z"/><path d="m88.23 82.04 6.65-12.47-6.65-12.47 20.51 12.47z"/><path d="m131.52 82.04 6.65-12.47-6.65-12.47 20.51 12.47z"/><path d="m174.81 82.04 6.65-12.47-6.65-12.47 20.51 12.47z"/><path d="m218.1 82.04 6.65-12.47-6.65-12.47 20.51 12.47z"/><path d="m261.39 82.04 6.65-12.47-6.65-12.47 20.51 12.47z"/><path d="m304.68 82.04 6.65-12.47-6.65-12.47 20.51 12.47z"/><path d="m347.97 82.04 6.66-12.47-6.66-12.47 20.51 12.47z"/><path d="m391.26 82.04 6.66-12.47-6.66-12.47 20.51 12.47z"/><path d="m434.56 82.04 6.65-12.47-6.65-12.47 20.51 12.47z"/><path d="m477.85 82.04 6.65-12.47-6.65-12.47 20.51 12.47z"/><path d="m1.64 122.14 6.65-12.48-6.65-12.47 20.51 12.47z"/><path d="m44.93 122.14 6.66-12.48-6.66-12.47 20.51 12.47z"/><path d="m88.23 122.14 6.65-12.48-6.65-12.47 20.51 12.47z"/><path d="m131.52 122.14 6.65-12.48-6.65-12.47 20.51 12.47z"/><path d="m174.81 122.14 6.65-12.48-6.65-12.47 20.51 12.47z"/><path d="m218.1 122.14 6.65-12.48-6.65-12.47 20.51 12.47z"/><path d="m261.39 122.14 6.65-12.48-6.65-12.47 20.51 12.47z"/><path d="m304.68 122.14 6.65-12.48-6.65-12.47 20.51 12.47z"/><path d="m347.97 122.14 6.66-12.48-6.66-12.47 20.51 12.47z"/><path d="m391.26 122.14 6.66-12.48-6.66-12.47 20.51 12.47z"/><path d="m434.56 122.14 6.65-12.48-6.65-12.47 20.51 12.47z"/><path d="m477.85 122.14 6.65-12.48-6.65-12.47 20.51 12.47z"/><path d="m1.64 162.23 6.65-12.47-6.65-12.47 20.51 12.47z"/><path d="m44.93 162.23 6.66-12.47-6.66-12.47 20.51 12.47z"/><path d="m88.23 162.23 6.65-12.47-6.65-12.47 20.51 12.47z"/><path d="m131.52 162.23 6.65-12.47-6.65-12.47 20.51 12.47z"/><path d="m174.81 162.23 6.65-12.47-6.65-12.47 20.51 12.47z"/><path d="m218.1 162.23 6.65-12.47-6.65-12.47 20.51 12.47z"/><path d="m261.39 162.23 6.65-12.47-6.65-12.47 20.51 12.47z"/><path d="m304.68 162.23 6.65-12.47-6.65-12.47 20.51 12.47z"/><path d="m347.97 162.23 6.66-12.47-6.66-12.47 20.51 12.47z"/><path d="m391.26 162.23 6.66-12.47-6.66-12.47 20.51 12.47z"/><path d="m434.56 162.23 6.65-12.47-6.65-12.47 20.51 12.47z"/><path d="m477.85 162.23 6.65-12.47-6.65-12.47 20.51 12.47z"/><path d="m1.64 202.33 6.65-12.47-6.65-12.48 20.51 12.48z"/><path d="m44.93 202.33 6.66-12.47-6.66-12.48 20.51 12.48z"/><path d="m88.23 202.33 6.65-12.47-6.65-12.48 20.51 12.48z"/><path d="m131.52 202.33 6.65-12.47-6.65-12.48 20.51 12.48z"/><path d="m174.81 202.33 6.65-12.47-6.65-12.48 20.51 12.48z"/><path d="m218.1 202.33 6.65-12.47-6.65-12.48 20.51 12.48z"/><path d="m261.39 202.33 6.65-12.47-6.65-12.48 20.51 12.48z"/><path d="m304.68 202.33 6.65-12.47-6.65-12.48 20.51 12.48z"/><path d="m347.97 202.33 6.66-12.47-6.66-12.48 20.51 12.48z"/><path d="m391.26 202.33 6.66-12.47-6.66-12.48 20.51 12.48z"/><path d="m434.56 202.33 6.65-12.47-6.65-12.48 20.51 12.48z"/><path d="m477.85 202.33 6.65-12.47-6.65-12.48 20.51 12.48z"/><path d="m1.64 242.42 6.65-12.47-6.65-12.47 20.51 12.47z"/><path d="m44.93 242.42 6.66-12.47-6.66-12.47 20.51 12.47z"/><path d="m88.23 242.42 6.65-12.47-6.65-12.47 20.51 12.47z"/><path d="m131.52 242.42 6.65-12.47-6.65-12.47 20.51 12.47z"/><path d="m174.81 242.42 6.65-12.47-6.65-12.47 20.51 12.47z"/><path d="m218.1 242.42 6.65-12.47-6.65-12.47 20.51 12.47z"/><path d="m261.39 242.42 6.65-12.47-6.65-12.47 20.51 12.47z"/><path d="m304.68 242.42 6.65-12.47-6.65-12.47 20.51 12.47z"/><path d="m347.97 242.42 6.66-12.47-6.66-12.47 20.51 12.47z"/><path d="m391.26 242.42 6.66-12.47-6.66-12.47 20.51 12.47z"/><path d="m434.56 242.42 6.65-12.47-6.65-12.47 20.51 12.47z"/><path d="m477.85 242.42 6.65-12.47-6.65-12.47 20.51 12.47z"/><path d="m1.64 282.52 6.65-12.47-6.65-12.47 20.51 12.47z"/><path d="m44.93 282.52 6.66-12.47-6.66-12.47 20.51 12.47z"/><path d="m88.23 282.52 6.65-12.47-6.65-12.47 20.51 12.47z"/><path d="m131.52 282.52 6.65-12.47-6.65-12.47 20.51 12.47z"/><path d="m174.81 282.52 6.65-12.47-6.65-12.47 20.51 12.47z"/><path d="m218.1 282.52 6.65-12.47-6.65-12.47 20.51 12.47z"/><path d="m261.39 282.52 6.65-12.47-6.65-12.47 20.51 12.47z"/><path d="m304.68 282.52 6.65-12.47-6.65-12.47 20.51 12.47z"/><path d="m347.97 282.52 6.66-12.47-6.66-12.47 20.51 12.47z"/><path d="m391.26 282.52 6.66-12.47-6.66-12.47 20.51 12.47z"/><path d="m434.56 282.52 6.65-12.47-6.65-12.47 20.51 12.47z"/><path d="m477.85 282.52 6.65-12.47-6.65-12.47 20.51 12.47z"/><path d="m1.64 322.62 6.65-12.48-6.65-12.47 20.51 12.47z"/><path d="m44.93 322.62 6.66-12.48-6.66-12.47 20.51 12.47z"/><path d="m88.23 322.62 6.65-12.48-6.65-12.47 20.51 12.47z"/><path d="m131.52 322.62 6.65-12.48-6.65-12.47 20.51 12.47z"/><path d="m174.81 322.62 6.65-12.48-6.65-12.47 20.51 12.47z"/><path d="m218.1 322.62 6.65-12.48-6.65-12.47 20.51 12.47z"/><path d="m261.39 322.62 6.65-12.48-6.65-12.47 20.51 12.47z"/><path d="m304.68 322.62 6.65-12.48-6.65-12.47 20.51 12.47z"/><path d="m347.97 322.62 6.66-12.48-6.66-12.47 20.51 12.47z"/><path d="m391.26 322.62 6.66-12.48-6.66-12.47 20.51 12.47z"/><path d="m434.56 322.62 6.65-12.48-6.65-12.47 20.51 12.47z"/><path d="m477.85 322.62 6.65-12.48-6.65-12.47 20.51 12.47z"/><path d="m1.64 362.71 6.65-12.47-6.65-12.47 20.51 12.47z"/><path d="m44.93 362.71 6.66-12.47-6.66-12.47 20.51 12.47z"/><path d="m88.23 362.71 6.65-12.47-6.65-12.47 20.51 12.47z"/><path d="m131.52 362.71 6.65-12.47-6.65-12.47 20.51 12.47z"/><path d="m174.81 362.71 6.65-12.47-6.65-12.47 20.51 12.47z"/><path d="m218.1 362.71 6.65-12.47-6.65-12.47 20.51 12.47z"/><path d="m261.39 362.71 6.65-12.47-6.65-12.47 20.51 12.47z"/><path d="m304.68 362.71 6.65-12.47-6.65-12.47 20.51 12.47z"/><path d="m347.97 362.71 6.66-12.47-6.66-12.47 20.51 12.47z"/><path d="m391.26 362.71 6.66-12.47-6.66-12.47 20.51 12.47z"/><path d="m434.56 362.71 6.65-12.47-6.65-12.47 20.51 12.47z"/><path d="m477.85 362.71 6.65-12.47-6.65-12.47 20.51 12.47z"/><path d="m1.64 402.81 6.65-12.47-6.65-12.48 20.51 12.48z"/><path d="m44.93 402.81 6.66-12.47-6.66-12.48 20.51 12.48z"/><path d="m88.23 402.81 6.65-12.47-6.65-12.48 20.51 12.48z"/><path d="m131.52 402.81 6.65-12.47-6.65-12.48 20.51 12.48z"/><path d="m174.81 402.81 6.65-12.47-6.65-12.48 20.51 12.48z"/><path d="m218.1 402.81 6.65-12.47-6.65-12.48 20.51 12.48z"/><path d="m261.39 402.81 6.65-12.47-6.65-12.48 20.51 12.48z"/><path d="m304.68 402.81 6.65-12.47-6.65-12.48 20.51 12.48z"/><path d="m347.97 402.81 6.66-12.47-6.66-12.48 20.51 12.48z"/><path d="m391.26 402.81 6.66-12.47-6.66-12.48 20.51 12.48z"/><path d="m434.56 402.81 6.65-12.47-6.65-12.48 20.51 12.48z"/><path d="m477.85 402.81 6.65-12.47-6.65-12.48 20.51 12.48z"/><path d="m1.64 442.9 6.65-12.47-6.65-12.47 20.51 12.47z"/><path d="m44.93 442.9 6.66-12.47-6.66-12.47 20.51 12.47z"/><path d="m88.23 442.9 6.65-12.47-6.65-12.47 20.51 12.47z"/><path d="m131.52 442.9 6.65-12.47-6.65-12.47 20.51 12.47z"/><path d="m174.81 442.9 6.65-12.47-6.65-12.47 20.51 12.47z"/><path d="m218.1 442.9 6.65-12.47-6.65-12.47 20.51 12.47z"/><path d="m261.39 442.9 6.65-12.47-6.65-12.47 20.51 12.47z"/><path d="m304.68 442.9 6.65-12.47-6.65-12.47 20.51 12.47z"/><path d="m347.97 442.9 6.66-12.47-6.66-12.47 20.51 12.47z"/><path d="m391.26 442.9 6.66-12.47-6.66-12.47 20.51 12.47z"/><path d="m434.56 442.9 6.65-12.47-6.65-12.47 20.51 12.47z"/><path d="m477.85 442.9 6.65-12.47-6.65-12.47 20.51 12.47z"/><path d="m1.64 483 6.65-12.47-6.65-12.47 20.51 12.47z"/><path d="m44.93 483 6.66-12.47-6.66-12.47 20.51 12.47z"/><path d="m88.23 483 6.65-12.47-6.65-12.47 20.51 12.47z"/><path d="m131.52 483 6.65-12.47-6.65-12.47 20.51 12.47z"/><path d="m174.81 483 6.65-12.47-6.65-12.47 20.51 12.47z"/><path d="m218.1 483 6.65-12.47-6.65-12.47 20.51 12.47z"/><path d="m261.39 483 6.65-12.47-6.65-12.47 20.51 12.47z"/><path d="m304.68 483 6.65-12.47-6.65-12.47 20.51 12.47z"/><path d="m347.97 483 6.66-12.47-6.66-12.47 20.51 12.47z"/><path d="m391.26 483 6.66-12.47-6.66-12.47 20.51 12.47z"/><path d="m434.56 483 6.65-12.47-6.65-12.47 20.51 12.47z"/><path d="m477.85 483 6.65-12.47-6.65-12.47 20.51 12.47z"/></g></svg>